<?xml version="1.0" encoding="UTF-8" standalone="no"?>
<svg
   version="1.1"
   width="637.90228"
   height="875.1709"
   id="svg47"
   xmlns="http://www.w3.org/2000/svg"
   xmlns:svg="http://www.w3.org/2000/svg">
  <defs
     id="defs47" />
  <path
     d="m 277.17181,7.679642 c 5.47326,2.451564 9.90313,5.420608 12.25,11.113281 0.3125,3.9375 0.3125,3.9375 0,7 h 8 v -2.9375 c 0.79424,-5.64023 4.91938,-9.398266 9,-13.0624997 4.88632,-2.6556093 10.54255,-2.6737601 16,-2.0000001 4.33994,1.3079247 7.26617,3.2845128 10.5,6.4374998 2.28725,5.432207 1.8105,10.749228 1.5,16.5625 h 8 l 0.1875,-3.1875 c 0.95138,-4.464143 2.39352,-5.906367 5.8125,-8.8125 l 1,-1 c 4.38266,-0.522634 9.01751,-1.023713 13.02735,1.046875 2.11919,1.761676 3.73583,3.479484 4.97265,5.953125 0.12149,1.621658 0.17544,3.248844 0.1875,4.875 l 0.043,2.617188 c -0.24187,2.631941 -0.90063,4.247618 -2.23047,6.507812 l 2.07813,0.34375 c 32.31516,7.257952 59.75085,31.712382 77.04687,58.96875 2.99384,5.003977 5.73578,10.113277 8.375,15.312497 l 1.06299,2.08325 c 1.45913,2.94733 2.43701,4.95894 2.43701,8.29175 l 3.44531,-1.02344 c 26.20278,-7.64105 53.79542,-10.23049 78.55469,3.02344 6.32138,3.90361 11.169,8.63345 15,15 l 1.47656,2.40234 c 6.01434,11.70949 5.39971,28.6005 1.55469,41.00782 -3.72658,9.3588 -8.94034,16.47379 -16.03125,23.58984 l -1.64063,1.71094 c -8.63326,8.24084 -21.07387,12.29889 -32.35937,15.28906 l -1.80518,0.53931 c -2.72825,0.57266 -5.26642,0.57257 -8.0542,0.55835 l -3.3789,-0.01 -3.51172,-0.0254 -3.55859,-0.0137 c -2.89719,-0.0118 -5.79427,-0.0282 -8.69141,-0.0488 0.24635,3.84417 0.49324,7.6883 0.74051,11.53241 0.0899,1.39847 0.17962,2.79695 0.26923,4.19544 0.4942,7.71173 0.99642,15.42263 1.53323,23.13153 0.82025,11.83783 1.55417,23.65561 1.95703,35.51562 0.71819,19.36701 4.41337,37.71288 8.5,56.625 0.29936,1.38997 0.59868,2.77994 0.89795,4.16992 2.94922,13.68041 5.91288,27.35821 9.18017,40.9668 12.9863,54.4214 22.30428,109.43483 27.73438,165.11328 l 0.31915,3.23248 c 2.28718,23.40474 3.09498,46.75737 3.11835,70.26752 l 0.007,3.30167 c 0.0159,19.77519 -1.0884,39.29758 -3.25708,58.94833 7.97719,-0.99323 15.64975,-2.0828 23.25,-4.75 l 2.31226,-0.79516 c 5.97213,-2.13059 11.27381,-4.74501 16.43774,-8.45484 l 2.35156,-1.61719 c 11.79448,-8.55957 19.00632,-21.41785 22.64852,-35.38257 l -2.04688,-1.32031 c -5.15455,-3.44133 -9.06838,-6.15061 -11.95312,-11.67969 l -1.25,-2.375 c -2.60585,-9.12048 1.18052,-17.11418 4.25,-25.625 l 0.78906,-2.60547 c 1.04014,-3.33973 2.19666,-5.37989 4.64844,-7.89453 5.29966,-2.23143 9.90654,-2.56531 15.5625,-1.5 2.99677,1.53304 5.60915,3.3011 8.33984,5.26563 2.66185,1.73547 4.78588,2.53026 7.84766,3.29687 6.54317,1.68789 12.29538,5.57212 15.8125,11.4375 0.82705,5.34978 0.74163,10.36223 -1.5,15.3125 -4.37758,4.7059 -9.20159,9.03381 -14.5,12.6875 h -2 l 0.0476,1.98096 c 0.50165,24.07509 -2.45203,43.87168 -18.04761,63.01904 l -1.41797,1.91016 c -13.06401,16.81847 -37.7244,25.91375 -58.31641,28.85547 -7.40981,0.5318 -14.84297,0.37413 -22.26562,0.23437 l -0.4375,2.3125 c -0.5625,2.6875 -0.5625,2.6875 -1.5625,5.6875 -0.617,11.19198 0.43153,21.96394 2.1387,33.01117 3.48211,22.78206 6.87922,45.82527 -7.1387,65.98883 -9.85428,13.04582 -21.76864,19.49171 -38,22 -6.15589,0.48662 -12.33041,0.38646 -18.5,0.3125 l -2.54861,-0.019 c -57.2469,-0.4366 -57.2469,-0.4366 -75.07638,-16.1685 -9.80666,-10.46044 -11.22745,-22.52704 -11.125,-36.375 l -0.0234,-3.12109 c 0.0199,-8.00824 0.97853,-15.7326 2.27344,-23.62891 l -2.54419,0.33545 c -3.21866,0.42317 -6.4376,0.84409 -9.65674,1.26367 -1.37381,0.17949 -2.74751,0.35979 -4.12109,0.54102 -4.16643,0.54938 -8.33495,1.07731 -12.50632,1.58789 -1.42339,0.17826 -2.84593,0.36356 -4.26739,0.55664 -14.5073,1.9698 -28.98701,2.02495 -43.60617,1.97607 -3.39325,-0.0113 -6.78617,-0.005 -10.1794,0.007 -60.78963,0.17541 -60.78963,0.17541 -80.1187,-6.26762 l 0.65625,2.47266 c 3.81771,16.24293 4.63444,33.83326 -1.65625,49.52734 l -0.91015,2.41016 c -3.99435,9.25098 -11.5302,12.52766 -20.49219,16.19531 l -3.59766,1.39453 -3.51953,1.54297 c -6.15962,2.29104 -12.74696,2.78436 -19.23047,3.58203 l -3.92188,0.51172 c -56.094106,7.1814 -56.094106,7.1814 -76.049306,-6.84668 -12.3293,-9.6778 -19.70066,-22.57497 -23.27881,-37.79004 -0.33344,-3.31668 -0.3797,-6.60557 -0.375,-9.9375 l -0.004,-2.97192 c 0.11051,-8.14956 1.00699,-16.13309 2.09751,-24.19596 3.00411,-22.22768 3.01066,-37.56592 -4.39829,-59.01962 -6.33633,-18.41448 -8.8967,-37.55598 -11.08459,-56.84366 -0.16054,-1.38344 -0.32822,-2.76607 -0.5022,-4.14789 -1.91882,-15.27228 -2.13108,-30.49957 -2.11108,-45.87739 0.003,-2.09505 0.002,-4.19009 10e-4,-6.28514 0.0168,-40.50128 3.40208,-80.81154 9.63028,-120.8342 0.64645,-4.17381 1.22901,-8.35431 1.79979,-12.53905 1.05669,-7.66815 2.24562,-15.2873 3.71974,-22.88673 l 0.52022,-2.70363 c 2.23737,-11.57699 4.55041,-23.13887 6.89384,-34.69481 l 0.72205,-3.56409 c 3.043,-14.97716 6.25122,-29.89278 9.84045,-44.74841 0.3681,-1.53853 0.73569,-3.07719 1.10278,-4.61597 0.35895,-1.50301 0.71791,-3.00602 1.07691,-4.50903 l 0.52623,-2.20369 c 0.83972,-3.5086 1.68905,-7.01424 2.56068,-10.51506 5.73961,-23.19194 7.42871,-46.11458 8.51441,-69.94404 0.51855,-11.37545 1.199,-22.73968 1.89392,-34.10552 0.19538,-3.21698 0.38555,-6.43422 0.57409,-9.65161 0.11747,-1.98373 0.23498,-3.96745 0.35254,-5.95117 l 0.15427,-2.661 c 0.37262,-6.2105 0.90096,-12.39973 1.49417,-18.59291 l -2.00229,0.0165 C 58.160074,212.00936 36.898584,210.94134 17.421534,192.793 5.189584,179.88513 -0.16877604,164.25996 0.00405396,146.62528 0.48185396,134.26697 5.723034,124.1827 14.624664,115.69144 c 4.85583,-3.98993 9.88121,-6.81056 15.79687,-8.89844 l 2.39063,-0.90625 c 20.84935,-6.584002 52.27902,-2.83299 71.894526,7.0586 1.84425,1.06921 1.84425,1.06921 4.71484,0.84765 1.67856,-2.38755 3.16105,-4.73511 4.625,-7.25 11.27405,-18.670905 25.06436,-34.682891 43.375,-46.749997 l 2.61719,-1.777344 c 12.86577,-8.521135 36.21841,-21.222736 52.38309,-21.222736 l -1,-2 c -0.54035,-4.925211 -0.54435,-8.869417 1.625,-13.375 3.21706,-3.555689 5.81028,-6.203284 10.70313,-7.007812 5.98273,-0.275279 10.83355,0.759642 15.67187,4.382812 2.61026,3.06705 3.90049,4.855544 4.25,8.875 l -0.25,2.125 8,-1 -0.14062,-2.195312 c -0.17067,-4.571578 -0.23801,-7.952753 1.64062,-12.179688 7.00922,-7.3596817 14.27226,-9.9555359 24.25,-6.738281 z"
     fill="#c99454"
     id="path2"
     style="fill:#d38d5f" />
  <path
     d="m 362.29681,457.85542 c 0.68836,0.28166 1.37672,0.56332 2.08594,0.85352 1.68196,0.68914 3.36084,1.38579 5.03906,2.08398 -0.53432,4.11235 -2.6981,6.12656 -5.5,9.0625 -3.50218,3.72866 -6.851,7.51254 -10.0625,11.5 -2.88598,3.57579 -5.84194,7.04152 -8.9375,10.4375 -3.11458,3.4174 -6.09186,6.90523 -9,10.5 -2.90813,3.59478 -5.88541,7.08261 -9,10.5 -14.33882,14.14082 -14.33882,14.14082 -20.83593,31.99219 2.09739,18.77901 12.4758,37.21083 26.95703,49.22656 17.79148,13.3217 37.12743,21.67688 59.5664,21.96875 1.0352,0.0198 1.0352,0.0198 2.09131,0.04 3.99884,0.006 7.22763,-0.20293 10.72119,-2.22754 1.05504,-1.82246 1.05504,-1.82246 2,-4 1.6547,-1.90361 3.32439,-3.73914 5.0625,-5.5625 3.62737,-3.87426 7.11297,-7.79536 10.4375,-11.9375 3.62858,-4.5098 7.44885,-8.76822 11.39649,-12.99536 3.98439,-4.29558 7.62902,-8.79752 11.22851,-13.42261 1.875,-2.08203 1.875,-2.08203 4.875,-3.08203 0.26813,-0.5775 0.53625,-1.155 0.8125,-1.75 1.73884,-3.29464 4.26396,-4.962 7.1875,-7.25 7.78887,25.26475 7.61909,61.1762 -2.8125,85.8125 -0.35062,0.8366 -0.70125,1.6732 -1.0625,2.53516 -0.37125,0.87527 -0.7425,1.75054 -1.125,2.65234 -0.37125,0.92684 -0.7425,1.85367 -1.125,2.80859 -8.25026,20.43568 -19.34238,38.50347 -34.875,54.19141 -0.95496,1.01259 -1.90805,2.02696 -2.85937,3.04297 -7.02479,7.3992 -14.59114,13.40676 -23.14063,18.95703 -0.59683,0.38785 -1.19367,0.77569 -1.80859,1.17529 -27.24022,17.4645 -59.84023,28.66446 -92.35938,29.09815 -0.86467,0.0126 -1.72935,0.0252 -2.62023,0.0382 -49.29163,0.57867 -97.03893,-10.0877 -133.87196,-45.09293 -2.05147,-1.9453 -4.15636,-3.73878 -6.33984,-5.53125 -14.21792,-12.44793 -24.16339,-29.09134 -32.16553,-45.97754 -1.06531,-2.18299 -2.27205,-4.27895 -3.45947,-6.39746 -2.45494,-4.92646 -3.96342,-10.10692 -5.5,-15.375 -0.24186,-0.82009 -0.48372,-1.64017 -0.73291,-2.48511 -3.89448,-13.9403 -5.6314,-27.44623 -5.47827,-41.88379 0.0238,-2.39755 0.0205,-4.794 0.0139,-7.19165 0.017,-8.64417 0.49863,-16.88718 2.32227,-25.37695 3.34652,1.57156 5.32585,3.18218 7.75,6 0.92039,1.05187 0.92039,1.05187 1.85938,2.125 1.39062,1.875 1.39062,1.875 1.39062,3.875 0.66,0 1.32,0 2,0 5,5.47619 5,5.47619 5,8 1.485,0.495 1.485,0.495 3,1 1.3959,1.55003 2.71887,3.16634 4,4.8125 3.36075,4.2173 6.81968,8.24752 10.5,12.1875 4.44885,4.76896 8.58513,9.69622 12.625,14.82031 2.03921,2.37058 3.67379,4.01357 6.86108,4.45435 2.48471,0.0287 4.9665,0.0537 7.45142,0.0378 1.35871,-0.008 1.35871,-0.008 2.74487,-0.0171 21.01448,-0.37938 41.33507,-10.51777 56.81763,-24.29541 0.78375,-0.68836 1.5675,-1.37672 2.375,-2.08594 12.45388,-11.63227 21.31469,-28.07861 22.5625,-45.22656 -0.37908,-7.38794 -3.689,-11.76169 -8.53857,-17.13379 -1.45162,-1.61223 -2.85182,-3.25931 -4.24659,-4.9209 -2.50267,-2.97033 -5.04024,-5.90816 -7.59082,-8.8374 -2.59515,-2.98386 -5.17332,-5.98225 -7.74902,-8.98291 -0.50249,-0.58507 -1.00499,-1.17014 -1.52271,-1.77295 -3.71654,-4.33992 -7.33855,-8.75057 -10.93823,-13.18799 -2.7775,-3.36795 -5.62384,-6.67208 -8.47655,-9.97643 -12.875,-14.95449 -12.875,-14.95449 -12.875,-17.875 0.58008,-0.25394 1.16016,-0.50789 1.75781,-0.76953 1.17176,-0.51627 1.17176,-0.51627 2.36719,-1.04297 1.24137,-0.5414 1.24137,-0.5414 2.50781,-1.09375 2.5255,-1.11403 2.5255,-1.11403 5.36719,-2.90625 6.08611,-2.40908 11.86485,-0.43362 17.74609,1.92578 17.29025,6.80223 35.11831,8.40241 53.55225,8.27784 2.83203,-0.0161 5.66264,-10e-6 8.49463,0.019 11.39892,0.013 22.07051,-1.00461 33.20703,-3.41016 0.89687,-0.17837 1.79373,-0.35675 2.71778,-0.54052 8.36169,-1.68656 15.98703,-3.81308 23.66894,-7.60401 5.76108,-1.88591 11.177,0.98885 16.48828,3.20703 z"
     fill="#eadcb9"
     id="path3" />
  <path
     d="m 278.54681,319.35542 c 0.91276,-7.3e-4 1.82552,-10e-4 2.76593,-0.002 35.46761,0.0745 72.8607,6.73971 99.10907,32.43972 9.69297,10.09284 15.17613,21.83121 15.1875,35.75 0.0122,0.77344 0.0245,1.54688 0.0371,2.34375 0.0352,14.00003 -6.1851,26.73221 -15.86914,36.67578 -8.83596,8.36705 -18.4677,13.95036 -29.35547,19.23047 -1.03898,0.50789 -2.07797,1.01578 -3.14843,1.53906 -37.43007,15.61758 -88.76975,15.0544 -126.85157,2.46094 -0.76634,-0.25266 -1.53269,-0.50531 -2.32226,-0.76563 -15.56191,-5.27785 -29.41639,-13.07671 -40.67774,-25.23437 0,-0.66 0,-1.32 0,-2 -0.66,0 -1.32,0 -2,0 -9.27565,-11.60598 -12.37463,-24.21363 -11.27051,-38.76465 1.85116,-15.29709 10.41823,-28.29127 22.33301,-37.63769 26.80235,-20.18401 59.23027,-26.04674 92.06251,-26.03516 z"
     fill="#f0d9b7"
     id="path4" />
  <path
     d="m 86.421814,149.79292 c 0.826289,0.44344 1.652578,0.88688 2.503906,1.34375 1.933594,1.15625 1.933594,1.15625 4.496094,3.65625 0.662542,4.49057 0.230866,7.1316 -0.933594,11.51172 -1.390436,5.42491 -2.010617,10.93777 -2.691406,16.48828 -0.134063,1.0609 -0.268125,2.1218 -0.40625,3.21485 -0.32724,2.59454 -0.650048,5.18955 -0.96875,7.78515 -29.058852,0.42298 -29.058852,0.42298 -39,-2 -1.090547,-0.25652 -2.181094,-0.51304 -3.304687,-0.77734 -10.987983,-2.95635 -19.028754,-7.88783 -25.230469,-17.5625 -4.648125,-8.441 -6.423027,-17.14573 -7.464844,-26.66016 -0.09668,-0.75023 -0.193359,-1.50047 -0.292969,-2.27343 -0.144531,-1.85157 -0.144531,-1.85157 0.292969,-4.72657 1.875,-1.75 1.875,-1.75 5,-3 0.647109,-0.27715 1.294219,-0.55429 1.960938,-0.83984 22.467612,-8.31992 46.677887,2.81504 66.039062,13.83984 z"
     fill="#eadcb9"
     id="path5" />
  <path
     d="m 544.42181,153.79292 c 1.64325,1.64325 1.21072,3.48443 1.25,5.75 -0.16777,12.96928 -4.05408,26.03675 -13,35.6875 -12.7373,11.62762 -30.33668,12.75262 -46.75,12.625 -1.10859,-0.005 -2.21718,-0.009 -3.35937,-0.0137 -2.7136,-0.0117 -5.42708,-0.0281 -8.14063,-0.0488 -0.0613,-0.7317 -0.12262,-1.46341 -0.18579,-2.21728 -0.12653,-1.45866 -0.12653,-1.45866 -0.25561,-2.94678 -0.0819,-0.95858 -0.16387,-1.91716 -0.24829,-2.90479 -0.39413,-3.72292 -1.06801,-7.3612 -1.76734,-11.03662 -0.59806,-3.18823 -1.14726,-6.38023 -1.66797,-9.58203 -0.16757,-1.01449 -0.33515,-2.02898 -0.50781,-3.07422 -0.42949,-3.78776 -0.42498,-7.42776 -0.36719,-11.23828 23.32959,-13.52982 48.81774,-24.77699 75,-11 z"
     fill="#eadbb8"
     id="path6" />
  <path
     d="m 129.42181,0.79292297 c 2.21175,3.08528753 3.54849,6.50669783 5,10.00000003 4.27714,9.38119 9.60566,16.800245 17,24 0.76313,0.94875 1.52625,1.8975 2.3125,2.875 4.67216,5.700614 10.46364,10.235088 16.6875,14.125 -3.05211,2.348331 -6.20922,4.464338 -9.4375,6.5625 -14.36737,9.572416 -26.729,19.955728 -36.75,34.164062 -0.59812,0.750235 -1.19625,1.500469 -1.8125,2.273438 -0.66,0 -1.32,0 -2,0 -2.6123,-3.829623 -4.7671,-7.940183 -7,-12 -0.47179,-0.835313 -0.94359,-1.670625 -1.42968,-2.53125 -3.66375,-6.826858 -5.6487,-13.989506 -7.57032,-21.46875 -0.26587,-0.946978 -0.26587,-0.946978 -0.53711,-1.913086 -3.53554,-15.939778 0.20977,-33.895623 7.53711,-48.086914 0.66,0 1.32,0 2,0 0.22688,-0.5775 0.45375,-1.155 0.6875,-1.75 3.58264,-6.14166698 8.6458,-8.3969049 15.3125,-6.25000003 z"
     fill="#eecba9"
     id="path7" />
  <path
     d="m 439.42181,6.792923 c 7.14894,-0.5673759 7.14894,-0.5673759 11,2 0,0.66 0,1.32 0,2 0.99,0.33 1.98,0.66 3,1 11.23593,14.885641 12.6578,32.020445 11,50 -1.61823,10.861195 -5.05277,20.737926 -11,30 -0.51304,0.920391 -1.02609,1.840781 -1.55468,2.789062 -0.47696,0.72961 -0.95391,1.459219 -1.44532,2.210938 -0.66,0 -1.32,0 -2,0 -0.66,1.32 -1.32,2.64 -2,3.999997 -3.27676,-3.042708 -5.52814,-6.287785 -8,-9.999997 -10.25383,-14.090619 -21.75685,-25.010805 -36,-35 1.59143,-4.223794 4.76662,-6.723217 8.0625,-9.625 11.06201,-10.006519 20.42933,-20.508735 26.11329,-34.5 0.82421,-1.875 0.82421,-1.875 2.82421,-4.875 z"
     fill="#efcba9"
     id="path8" />
  <path
     d="m 605.42181,598.79292 c 2.99677,1.53304 5.60915,3.3011 8.33985,5.26563 2.66184,1.73547 4.78587,2.53026 7.84765,3.29687 6.54317,1.68789 12.29538,5.57212 15.8125,11.4375 0.82706,5.34978 0.74164,10.36223 -1.5,15.3125 -4.10981,4.41806 -8.47623,8.33832 -13.5,11.6875 -0.99,0 -1.98,0 -3,0 -1.37868,-1.62935 -2.71274,-3.29749 -4,-5 -3.22279,-1.61139 -6.51491,-1.59648 -10,-1 -3.61785,2.81389 -5.82509,5.9936 -8,10 -5.30155,-0.41581 -8.21424,-1.21424 -12,-5 -3.86433,-5.18924 -6.54176,-9.80496 -6.39062,-16.42969 0.92051,-6.05694 3.31998,-11.82897 5.39062,-17.57031 0.26039,-0.8598 0.52078,-1.71961 0.78907,-2.60547 1.04014,-3.33973 2.19666,-5.37988 4.64843,-7.89453 5.29966,-2.23143 9.90655,-2.56531 15.5625,-1.5 z"
     fill="#945d28"
     id="path9" />
  <path
     d="m 185.67181,255.41011 c 5.92113,2.61363 10.85511,7.59304 13.75,13.38282 1.53576,15.0958 1.53576,15.0958 -3,21.24999 -5.59574,5.82983 -10.41615,7.93912 -18.5,8.3125 -7.01545,-0.23547 -11.08165,-2.21427 -16.02343,-7.05468 -4.7595,-5.30973 -5.96739,-9.9834 -5.78125,-16.95313 0.86659,-7.26608 4.86686,-11.54245 10.30468,-16.10937 5.88928,-4.25593 12.23171,-4.75328 19.25,-2.82813 z"
     fill="#0d0b0a"
     id="path10" />
  <path
     d="m 394.65618,255.64058 c 5.8254,3.33041 11.61943,8.71374 13.76563,15.15235 0.71974,6.94038 0.71223,12.56049 -3.5,18.3164 -3.72762,4.18386 -8.07663,8.3814 -13.75781,9.08985 -7.32144,0.17749 -13.02342,0.12831 -19.00391,-4.61329 -2.63869,-2.7217 -4.14914,-5.34983 -5.73828,-8.79296 -0.33,-0.66 -0.66,-1.32 -1,-2 -0.72207,-8.37318 0.37086,-14.16897 5.1875,-21.1875 6.53918,-6.53918 15.029,-9.38596 24.04687,-5.96485 z"
     fill="#0e0b0a"
     id="path11" />
  <path
     d="m 248.42181,367.79292 c 3.52637,2.19418 5.48947,4.16046 7,8 0.65011,5.78292 1.06734,11.92995 -1.75,17.1875 -3.31293,4.14117 -3.31293,4.14117 -6.25,4.8125 -3.39067,0 -5.89608,-0.0316 -8.52734,-2.33984 -5.0997,-6.04573 -5.03488,-10.97973 -4.47266,-18.66016 2.57663,-7.34337 6.17721,-9.96069 14,-9 z"
     fill="#0f0e0c"
     id="path12" />
  <path
     d="m 317.42181,367.79292 c 3.54077,2.27144 5.52343,4.0252 7.375,7.8125 1.32338,6.74921 1.19835,11.48424 -2.17968,17.48438 -1.79244,2.55393 -3.24384,3.67354 -6.19532,4.70312 -3.5625,0 -3.5625,0 -7,-1 -4.53584,-4.53584 -5.21616,-8.49895 -5.4375,-14.75 0.0384,-4.63235 0.11734,-7.899 3,-11.625 3.35482,-3.11011 5.90272,-3.59674 10.4375,-2.625 z"
     fill="#12100f"
     id="path13" />
  <path
     d="m 248.42181,367.79292 c 0,0.66 0,1.32 0,2 -1.63968,0.21657 -1.63968,0.21657 -3.3125,0.4375 -3.61873,0.44538 -3.61873,0.44538 -6.6875,1.5625 -0.14437,0.94875 -0.28875,1.8975 -0.4375,2.875 -0.5625,3.125 -0.5625,3.125 -1.5625,5.125 -0.22467,1.53669 -0.40796,3.07968 -0.5625,4.625 -0.0838,0.81727 -0.16757,1.63453 -0.2539,2.47656 -0.0606,0.62649 -0.12117,1.25297 -0.1836,1.89844 -0.33,0 -0.66,0 -1,0 -0.56921,-13.0286 -0.56921,-13.0286 3,-18 3.31982,-3.55694 6.304,-3.27092 11,-3 z"
     fill="#2d261c"
     id="path14" />
  <path
     d="m 183.98431,859.73042 c 1.20657,0.0309 1.20657,0.0309 2.4375,0.0625 -2.74378,2.74378 -5.99316,3.73048 -9.5625,5.0625 -0.71929,0.27022 -1.43859,0.54044 -2.17968,0.81885 -5.12344,1.85898 -9.78212,2.92309 -15.25782,3.11865 1,-2 1,-2 2.9336,-2.76196 0.82629,-0.23453 1.65258,-0.46906 2.5039,-0.71069 1.34192,-0.38962 1.34192,-0.38962 2.71094,-0.78711 0.94102,-0.26491 1.88203,-0.52981 2.85156,-0.80274 1.85496,-0.5298 3.70917,-1.06222 5.5625,-1.59765 0.82629,-0.2334 1.65258,-0.46681 2.50391,-0.70728 5.15602,-1.68677 5.15602,-1.68677 5.49609,-1.69507 z"
     fill="#c39c69"
     id="path15" />
  <path
     d="m 519.42181,742.79292 c 3.63,0 7.26,0 11,0 0,0.33 0,0.66 0,1 -2.64,0 -5.28,0 -8,0 -0.28875,0.5775 -0.5775,1.155 -0.875,1.75 -1.125,2.25 -1.125,2.25 -2.15625,3.875 -1.40955,3.45568 -1.43758,6.9422 -1.59375,10.625 -0.0387,0.74508 -0.0773,1.49016 -0.11718,2.25781 -0.0939,1.83034 -0.17691,3.66123 -0.25782,5.49219 -0.33,0 -0.66,0 -1,0 -0.55353,-18.041 -0.55353,-18.041 3,-25 z"
     fill="#eedcbb"
     id="path16" />
  <path
     d="m 79.421814,310.79292 c 0.33,0 0.66,0 1,0 0.193939,2.14526 0.379987,4.29124 0.5625,6.4375 0.104414,1.19496 0.208828,2.38992 0.316406,3.6211 0.03996,0.97066 0.07992,1.94132 0.121094,2.9414 -0.33,0.33 -0.66,0.66 -1,1 -0.242617,2.25544 -0.383321,4.50946 -0.523438,6.77344 -0.560192,2.61729 -1.446513,3.5439 -3.476562,5.22656 0.143086,-1.12406 0.286172,-2.24812 0.433594,-3.40625 0.586654,-4.69323 1.112063,-9.39239 1.628906,-14.09375 0.09088,-0.82242 0.181758,-1.64484 0.275391,-2.49218 0.221211,-2.00255 0.441733,-4.00518 0.662109,-6.00782 z"
     fill="#c7a270"
     id="path17" />
  <path
     d="m 428.42181,26.792923 c 0.33,0.66 0.66,1.32 1,2 -3.08366,4.247099 -6.25512,8.412576 -9.625,12.4375 -0.54914,0.658711 -1.09828,1.317422 -1.66406,1.996094 -1.90259,1.741873 -3.19116,2.175786 -5.71094,2.566406 4.02122,-4.724926 8.10967,-9.377386 12.26563,-13.984375 1.88049,-2.102382 1.88049,-2.102382 3.73437,-5.015625 z"
     fill="#ead2b4"
     id="path18" />
  <path
     d="m 323.42181,515.79292 c 0.33,0.99 0.66,1.98 1,3 -1.74294,2.36817 -3.48379,4.507 -5.4375,6.6875 -0.52916,0.60651 -1.05832,1.21301 -1.60351,1.83789 -1.3106,1.49951 -2.63365,2.98812 -3.95899,4.47461 -0.99,-0.33 -1.98,-0.66 -3,-1 0.68707,-0.74765 1.37414,-1.49531 2.08203,-2.26562 0.91025,-0.99471 1.82041,-1.9895 2.73047,-2.98438 0.45182,-0.49113 0.90364,-0.98226 1.36914,-1.48828 2.42654,-2.65679 4.72186,-5.33637 6.81836,-8.26172 z"
     fill="#c69b62"
     id="path19" />
  <path
     d="m 621.42181,604.79292 c 2.00637,0.2926 4.00714,0.62634 6,1 0.33,0 0.66,0 1,0 1.34137,0.65036 2.67533,1.3163 4,2 -0.66,0 -1.32,0 -2,0 -0.33,1.32 -0.66,2.64 -1,4 -0.99,-0.68062 -0.99,-0.68062 -2,-1.375 -3.65207,-1.9782 -6.95052,-2.73274 -11,-3.625 0.63938,-0.14437 1.27875,-0.28875 1.9375,-0.4375 2.03796,-0.37257 2.03796,-0.37257 3.0625,-1.5625 z"
     fill="#efe6cc"
     id="path20" />
  <path
     d="m 623.42181,643.79292 c 0.66,0.33 1.32,0.66 2,1 -1.375,2.5 -1.375,2.5 -3,5 -0.66,0 -1.32,0 -2,0 0,5.61 0,11.22 0,17 -0.33,0 -0.66,0 -1,0 -0.11608,-3.27053 -0.1872,-6.54054 -0.25,-9.8125 -0.0335,-0.92877 -0.067,-1.85754 -0.10156,-2.81445 -0.0129,-0.89268 -0.0258,-1.78535 -0.0391,-2.70508 -0.021,-0.82218 -0.0419,-1.64436 -0.0635,-2.49145 0.4541,-2.17652 0.4541,-2.17652 2.47852,-3.96827 0.97791,-0.59808 0.97791,-0.59808 1.97558,-1.20825 z"
     fill="#ecdbb5"
     id="path21" />
  <path
     d="m 406.42181,284.79292 c 1.0406,3.12178 1.32285,4.07084 0,7 -1.65204,0.70212 -3.31923,1.36972 -5,2 -0.33,0.99 -0.66,1.98 -1,3 -0.99,0.33 -1.98,0.66 -3,1 -0.66,-0.66 -1.32,-1.32 -2,-2 1.36125,-0.83531 1.36125,-0.83531 2.75,-1.6875 3.67404,-2.61421 6.22924,-5.27097 8.25,-9.3125 z"
     fill="#b08554"
     id="path22" />
  <path
     d="m 40.421814,698.79292 c 0.66,0 1.32,0 2,0 0.132773,0.71028 0.265547,1.42055 0.402344,2.15235 0.176601,0.9191 0.353203,1.8382 0.535156,2.78515 0.174023,0.91653 0.348047,1.83305 0.527344,2.77735 0.312306,2.23805 0.312306,2.23805 1.535156,3.28515 0.0718,1.51928 0.08392,3.04168 0.0625,4.5625 -0.009,0.82629 -0.01805,1.65258 -0.02734,2.50391 -0.0116,0.63808 -0.0232,1.27617 -0.03516,1.93359 -2.302328,-3.80384 -2.878404,-7.93803 -3.625,-12.25 -0.134063,-0.74508 -0.268125,-1.49015 -0.40625,-2.25781 -0.328417,-1.82975 -0.64933,-3.66084 -0.96875,-5.49219 z"
     fill="#c49b66"
     id="path23" />
  <path
     d="m 250.42181,19.792923 c 0.33,0 0.66,0 1,0 0,2.97 0,5.94 0,9 -2.64,0.33 -5.28,0.66 -8,1 0,-0.99 0,-1.98 0,-3 1.98,0 3.96,0 6,0 0.33,-2.31 0.66,-4.62 1,-7 z"
     fill="#f6e9c8"
     id="path24" />
  <path
     d="m 354.92181,17.480423 c 0.95907,-0.01676 1.91813,-0.03352 2.90625,-0.05078 2.59375,0.363281 2.59375,0.363281 5.59375,3.363281 -4.29,-0.66 -8.58,-1.32 -13,-2 -0.66,1.32 -1.32,2.64 -2,4 -0.99,0 -1.98,0 -3,0 1.70141,-5.104208 4.61093,-5.292786 9.5,-5.3125 z"
     fill="#c69e69"
     id="path25" />
  <path
     d="m 157.42181,268.79292 c 1.11617,3.7143 1.31242,7.39162 1.5625,11.25 0.0838,1.26328 0.16758,2.52657 0.25391,3.82813 0.0606,0.96422 0.12117,1.92843 0.18359,2.92187 -2.52196,-3.78295 -3.13815,-5.45867 -3.125,-9.9375 -0.003,-0.87527 -0.005,-1.75054 -0.008,-2.65234 0.13281,-2.41016 0.13281,-2.41016 1.13281,-5.41016 z"
     fill="#352613"
     id="path26" />
  <path
     d="m 312.42181,7.792923 c 6.83658,-0.5043376 12.32487,-0.1589852 18,4 0.99,1.485 0.99,1.485 2,3 -0.99,0 -1.98,0 -3,0 -1,-1 -2,-2 -3,-3 -4.42466,-2.3424712 -9.09171,-2.5936492 -14,-3 0,-0.33 0,-0.66 0,-1 z"
     fill="#c5a06e"
     id="path27" />
  <path
     d="m 564.42181,737.79292 c -6.28453,3.32798 -10.88658,4.45165 -18,4 2.93164,-1.55403 5.83366,-2.69801 9,-3.6875 0.84563,-0.27199 1.69125,-0.54398 2.5625,-0.82422 2.56071,-0.51296 3.99579,-0.33044 6.4375,0.51172 z"
     fill="#f3e1c3"
     id="path28" />
  <path
     d="m 527.42181,700.79292 c 0.33,0.66 0.66,1.32 1,2 8.91,-0.99 8.91,-0.99 18,-2 -3,3 -3,3 -6.79297,3.29297 -1.46513,-0.0199 -2.93011,-0.0556 -4.39453,-0.10547 -0.74959,-0.0135 -1.49918,-0.0271 -2.27148,-0.041 -1.84731,-0.0353 -3.69426,-0.0891 -5.54102,-0.14649 0,-0.99 0,-1.98 0,-3 z"
     fill="#ceaa77"
     id="path29" />
  <path
     d="m 4.421814,172.79292 c 1.6815675,2.52235 3.1646801,5.03587 4.625,7.6875 0.4460156,0.80825 0.8920312,1.61649 1.351562,2.44922 0.337735,0.61488 0.675469,1.22977 1.023438,1.86328 -1.890625,-0.29297 -1.890625,-0.29297 -4,-1 -2.0966907,-3.96873 -3,-6.48438 -3,-11 z"
     fill="#f5eac7"
     id="path30" />
  <path
     d="m 583.42181,614.79292 c 0.66,0.99 1.32,1.98 2,3 -0.66,0 -1.32,0 -2,0 0.30938,1.14469 0.30938,1.14469 0.625,2.3125 0.375,2.6875 0.375,2.6875 -1.625,5.6875 -0.66,0 -1.32,0 -2,0 0.55106,-3.94925 1.38936,-7.3492 3,-11 z"
     fill="#9f7548"
     id="path31" />
  <path
     d="m 170.42181,864.79292 c 0,0.66 0,1.32 0,2 -7.625,2.125 -7.625,2.125 -11,1 6.5,-3 6.5,-3 11,-3 z"
     fill="#cfaa7b"
     id="path32" />
  <path
     d="m 77.421814,864.79292 c 7.384615,0.49231 7.384615,0.49231 10.5,3.0625 0.495,0.63938 0.99,1.27875 1.5,1.9375 -1.627233,-0.45034 -3.251737,-0.91055 -4.875,-1.375 -1.357383,-0.38285 -1.357383,-0.38285 -2.742188,-0.77343 -2.382812,-0.85157 -2.382812,-0.85157 -4.382812,-2.85157 z"
     fill="#c9a578"
     id="path33" />
  <path
     d="m 564.42181,693.79292 c -0.33,0.99 -0.66,1.98 -1,3 -4.09724,1.54613 -6.81857,2.29228 -11,1 1.62327,-0.67087 3.24868,-1.33657 4.875,-2 0.90493,-0.37125 1.80985,-0.7425 2.74219,-1.125 2.38281,-0.875 2.38281,-0.875 4.38281,-0.875 z"
     fill="#c8a16f"
     id="path34" />
  <path
     d="m 170.42181,256.79292 c 0,0.66 0,1.32 0,2 -0.66,0 -1.32,0 -2,0 0,0.66 0,1.32 0,2 -2.375,1.6875 -2.375,1.6875 -5,3 -0.66,-0.33 -1.32,-0.66 -2,-1 1.1197,-1.00593 2.24595,-2.00458 3.375,-3 0.93973,-0.83531 0.93973,-0.83531 1.89844,-1.6875 1.72656,-1.3125 1.72656,-1.3125 3.72656,-1.3125 z"
     fill="#221407"
     id="path35" />
  <path
     d="m 231.42181,591.79292 c 0.33,0.99 0.66,1.98 1,3 -4.75,4 -4.75,4 -7,4 1.22934,-3.68802 2.9386,-4.72357 6,-7 z"
     fill="#ebd5ae"
     id="path36" />
  <path
     d="m 457.42181,553.79292 c 0.66,0.33 1.32,0.66 2,1 0,1.65 0,3.3 0,5 -2.475,-0.99 -2.475,-0.99 -5,-2 0.99,-1.32 1.98,-2.64 3,-4 z"
     fill="#eed3a5"
     id="path37" />
  <path
     d="m 66.421814,378.79292 c 0.33,0 0.66,0 1,0 0.08132,1.43656 0.139336,2.87445 0.1875,4.3125 0.05221,1.20076 0.05221,1.20076 0.105469,2.42578 -0.354953,2.74024 -1.186632,3.55343 -3.292969,5.26172 1,-8.57143 1,-8.57143 2,-12 z"
     fill="#c79e6b"
     id="path38" />
  <path
     d="m 334.42181,19.792923 c 0.33,0 0.66,0 1,0 0.13278,0.626484 0.26555,1.252969 0.40235,1.898437 0.1766,0.817266 0.3532,1.634532 0.53515,2.476563 0.17403,0.812109 0.34805,1.624219 0.52735,2.460937 0.45846,2.193526 0.45846,2.193526 1.53515,4.164063 -1.32,0 -2.64,0 -4,0 0,-3.63 0,-7.26 0,-11 z"
     fill="#e9d7b2"
     id="path39" />
  <path
     d="m 198.42181,460.79292 c 0.33,1.32 0.66,2.64 1,4 -0.99,0.66 -1.98,1.32 -3,2 -0.66,-1.65 -1.32,-3.3 -2,-5 2,-1 2,-1 4,-1 z"
     fill="#ead2aa"
     id="path40" />
  <path
     d="m 269.04681,6.730423 c 1.50434,0.013535 1.50434,0.013535 3.03907,0.027344 0.77086,0.011602 1.54172,0.023203 2.33593,0.035156 0,0.33 0,0.66 0,1 -3.96,0.66 -7.92,1.32 -12,2 -0.33,-0.66 -0.66,-1.32 -1,-2 2.64459,-1.3222919 4.67762,-1.096772 7.625,-1.0625 z"
     fill="#caa16e"
     id="path41" />
  <path
     d="m 505.42181,856.79292 c 0,3 0,3 -2.5,5.6875 -0.825,0.76313 -1.65,1.52625 -2.5,2.3125 -0.66,-0.66 -1.32,-1.32 -2,-2 2.31,-1.98 4.62,-3.96 7,-6 z"
     fill="#f8ebd1"
     id="path42" />
  <path
     d="m 636.42181,630.79292 c 0.33,0 0.66,0 1,0 0.25,2.3125 0.25,2.3125 0,5 -2,1.8125 -2,1.8125 -4,3 -0.66,-0.33 -1.32,-0.66 -2,-1 0.63938,-0.78375 1.27875,-1.5675 1.9375,-2.375 2.04393,-2.42039 2.04393,-2.42039 3.0625,-4.625 z"
     fill="#f0e4c8"
     id="path43" />
  <path
     d="m 309.42181,531.79292 c 0.66,1.32 1.32,2.64 2,4 -1.375,1.5 -1.375,1.5 -3,3 -0.66,0 -1.32,0 -2,0 1.875,-4.75 1.875,-4.75 3,-7 z"
     fill="#ca9d63"
     id="path44" />
  <path
     d="m 501.42181,410.79292 c 0.33,0 0.66,0 1,0 2.27679,8.03572 2.27679,8.03572 1,12 -2.13586,-3.2038 -2.23132,-4.0194 -2.125,-7.6875 0.0181,-0.80824 0.0361,-1.61648 0.0547,-2.44922 0.0232,-0.61488 0.0464,-1.22976 0.0703,-1.86328 z"
     fill="#c69c69"
     id="path45" />
  <path
     d="m 161.42181,258.79292 c 0.99,0 1.98,0 3,0 -1.29299,2.88438 -2.65941,4.8722 -5,7 0.875,-5.875 0.875,-5.875 2,-7 z"
     fill="#b08754"
     id="path46" />
  <path
     d="m 308.42181,9.792923 c -1.15173,2.468 -2.04783,4.047836 -4,6 -0.99,-0.33 -1.98,-0.66 -3,-1 4.75,-5 4.75,-5 7,-5 z"
     fill="#c59c67"
     id="path47" />
</svg>
